<svg id="background" xmlns="http://www.w3.org/2000/svg" viewBox="0 0 1370.12 532.98"><defs><style>.cls-1{fill:#fcfcfb;}.cls-2{fill:#231f20;}.cls-3{fill:#080707;}.cls-4{fill:#424242;}.cls-5{fill:#d3d3d3;}.cls-6{fill:#929292;}</style></defs><path class="cls-1" d="M167.16,508.52c-2.39,25.85,5.43,49.58,15.11,72.92-6-28.43-11.33-57-11-86.18.85-19.54,5.37-38.34,11.49-56.82a16.72,16.72,0,0,0,1.67-2.1c23.76-41.58,42.79-44.32,75.94-10.9,12,20.15,18.7,42.38,25.23,64.67-1.24,6.88,1.6,13.25,3.07,19.63,4.47,19.43,3.86,39.78,10.93,58.69,8.48,1.05,17.12,1.37,25.39,3.28,21.22,4.89,43.5,4.61,63.93,13.22,4.77-.53,9.55-1.06,15.44,1.48-6.2,1.63-11,2.42-15.45-1.47-5.33-.43-10.72-.49-16-1.35-24.58-4-49.13-8.25-73.7-12.4-.46,13.85,2,27.24,6.17,40.39-.3,2.63-.61,5.27-.91,7.9,25.09,0,49.75,4.93,74.7,6.37,1.16,0,63.41,6.64,90.08,10.18,35.16,4.67,70.44,8.44,105.66,12.61Q625,654.57,675,660.53c4.88.59,9.73,1.51,14.59,2.28q-3.79-14.59-7.6-29.19L409.1,591.2c4.59-5,9.56-4.25,14.08-3.37,76,14.72,153,23.55,229.25,36.85,4.62.81,11,4.19,13.89-3.52,2.66,7.73,8.81,7.71,15.32,6.91-6.52-31.62-5-63.27-.51-95,.76-5.26.54-10.67.77-16,3.53-16.85,13.35-49,15.54-49,2.73-2.9,6.45-5.18,8.13-8.75,19.56-41.71,78.11-31.75,79.78-28.67,16.76,8,30,22.34,39.79,35.84,7.25,10,13.59,25.15,16.78,39.41,1.26,5.64,3.82,11,5.79,16.45l1.12-.28-1.12.28c11.7,43.72,14.41,88.88,21.36,133.35.69,4.45,1.88,8.81,2.84,13.21-.53,6.55,3.2,8.47,9,8.89,27.78,2,55.55,3.63,83.4,1.79,12.62,0,25.26-.48,37.84.18,27.38,1.43,53.75-.51,77.57-16.43,7.52-5,16.89-5.7,26-5.9,28.82-.61,57.64-1.3,86.45-2.33,3.79-.13,9.21,3,11.35-3.39l8.81.76c15.43,4.06,30.73,2.64,46-1.1l38.81-1.26c6.6,1.87,13.14,2.33,19.51-.88l49-2.34a20,20,0,0,0,17.47-.87l31.33-1.65c5.14,2.74,10.06,2,14.86-.9l31.27-1.86c6,2,11.81,2.66,17.23-1.53l18-1.12c12.59,4.72,25.14-1.76,37.71-.16q-.32-6-.63-11.88c1.6-8.68-2.23-16.87-2.28-25.4-.25-17.05,2.22-34.2-2-51.09-1.29,17,1.51,34.26-2.47,51.15-4.93,6.87-12.9,9.57-19.47,14.19-.42-25.55,2.72-50.88,5.06-76.24.7-7.57,1.9-15.08.08-22.63l-1.26-7.79c-2.72-2.54-3.36-5,0-7.64,9.59-7.55,4.07-10.37-3.92-12.38-.8,6-1.71,11.46-8.77,4-3.58-3.79-7.51-7.26-11.28-10.87q.64-2.83,1.28-5.67l12.61-9.46c3.52,4,3.1,9.73,7.65,12.31,1.77-6.33-1.37-13.64,3.81-19.3-28.16-67.35-82.94-91.09-151.41-92.61-33.43-.74-66.12-8.05-99.23-11.63-4.91-.54-9.84-1-14.76-1.44l-.31-.37,0,.4-13.16-.68c-12.26,2.81-24.08-.71-36-2.55-10.38,4.45-21.28,2.5-32,2.63l-46.9-.16c-44.28.14-88.56-.17-132.83.52-69.09,1.08-138.18,2.78-207.27,4.37-9.09.21-16-.7-19.91-11.23-12.19-32.48-27.77-63.48-44.09-94.09-7.73-14.51-5.3-20.86,10.8-23.46,22.22-3.6,44.64-6.25,67.06-8.29,46.39-4.22,92.94-3.46,139.45-3.43l11.05.13,16,.23c27.06,3.77,54.19,6.68,81.58,6.13-1.11,0-3.55-1.92-4.63-2.42-1.81-.84-3.65-1.58-5.53-2.24a57.23,57.23,0,0,0-11.13-2.48c-19.47-2.78-39-5.93-58.64-7.28-6.5-.45-13.34.09-19.77-.71-13.63-1-27.3-1.87-41-1.62-4.66.09-9.32.31-14,.69-17.25.09-77.61,1.36-86.67,1.76l-8.19.19c-27,.39-53.89,1.38-80.62,5.11-14.36,2-27.74,6.28-36.21,19.45-.35,5.59,1.52,10.09,4.76,14.89a326.55,326.55,0,0,1,19.93,33.62c11.91,23.3,22.49,47.21,30.74,72.75-19.42-1.3-49.91-4.42-55.08-2.92-9.72-1.83-6.66,4.56-6,9.38q-.91,2.58-1.81,5.18l-38.5,19.65-4.56-4.08c-.17-6.06-.55-12.12-.43-18.18.09-4.57-1.38-6.56-6.07-5.13-12.83-1.5-25.81.4-38.67-2.16-7.62-1.52-13.25-4.61-16.21-11.92,29.77.34,59.56-.05,89.27,1.32,16.17.75,16.64,1.52,13.92-15.26-11.07-21.33-23.8-27-46.71-25-19.62,1.72-35.74,12.35-53.69,18.12-1.88.6-1,9.81-1.4,15l-3.76,3.9c-32.81-2.74-65.2-7.74-97.9-17.52,15.09-15,38.58-9.75,54.85-26a296.39,296.39,0,0,0-86.71,5.73c-11.81,3.28-22.9,9.27-35.53,9.46-19.92,3.82-37.66,14.69-58.18,17-20.68,2.33-41.31,4.56-62.11,4.94-55.11,1-89,29.92-99.11,84.7C167.27,450.8,165.09,479.48,167.16,508.52ZM661.93,611.79c-.35-.57-.73-1.11-1.11-1.65C661.2,610.68,661.58,611.22,661.93,611.79ZM658.27,607A40.46,40.46,0,0,0,647,598.77c-1.66-.86-3.37-1.64-5.09-2.36,1.72.72,3.43,1.5,5.09,2.36A40.46,40.46,0,0,1,658.27,607ZM453.84,460.27c38.15-1.65,76.24.3,114.35,1.67-38.11-1.37-76.2-3.32-114.35-1.67ZM666.32,621.16c-.2-.27-.41-.54-.62-.8.21.26.42.53.62.8Z" transform="translate(-164.97 -206.38)"/><path class="cls-2" d="M165.66,508.52c-2.06,25.66,5.5,49.86,15.16,73.32a1.51,1.51,0,0,0,2.9-.8c-11-52.11-22.53-116.2,13.52-161.45,5.32-6.67,12.1-13.5,20.82-15.17,8.52-1.62,16.74,2.26,23.63,6.92a106.23,106.23,0,0,1,13.47,11.12c5.61,5.31,8.81,12.28,12,19.21,5.83,12.66,10.15,26,14.16,39.29,2.07,6.9,1.95,13.72,3.6,20.63s3.49,13.7,4.54,20.79c2.33,15.66,3.33,31.42,8.68,46.45a1.59,1.59,0,0,0,1.45,1.1c18.8,2.17,37.33,5.49,56.05,8.26a155.74,155.74,0,0,1,26,5.63c3.2,1,5.78,2.36,9.07,2.42,4.77.09,8.62-.13,13.26,1.61V585c-4.51,1.13-8.41,1.81-12.81-.19a18,18,0,0,0-7.59-1.68c-10.1-.65-20-2.55-30-4.21q-27-4.51-53.95-9.14a1.53,1.53,0,0,0-1.9,1.45,116.11,116.11,0,0,0,1.63,22.11c1.54,9,4.69,17,3.63,26.18a1.52,1.52,0,0,0,1.5,1.5c25.49.15,51,4.24,76.33,6.51,15,1.35,29.92,3.17,44.87,4.85,51.58,5.8,103.1,12.34,154.66,18.44,36.27,4.29,72.84,7.63,108.89,13.48a1.52,1.52,0,0,0,1.85-1.85q-3.81-14.6-7.61-29.19a1.43,1.43,0,0,0-1-1L409.5,589.76l.66,2.5c6.13-5.65,13.32-2.83,20.49-1.48q9.18,1.72,18.38,3.36,17.09,3,34.22,5.77c23.27,3.75,46.59,7.22,69.91,10.68s46.64,6.93,69.92,10.69c10.53,1.7,21.19,3.15,31.61,5.46,5.86,1.3,10.08,1.14,12.92-4.82l-2.74-.36c3.16,7.62,9,8.87,16.77,8a1.53,1.53,0,0,0,1.45-1.9,237.31,237.31,0,0,1-4.18-55c.62-17.72,3.37-35.25,4.41-52.92.69-11.84,5.46-24.3,9.07-35.53A109,109,0,0,1,696.77,472c1.66-3.63,4.6-4.9,7.61-8.36s4.75-8.29,7.57-12.15a49.29,49.29,0,0,1,13.3-12.37,66.87,66.87,0,0,1,26.66-9.34c13.6-1.93,27.17-1.35,38.56,5.37,14.28,8.42,26.72,21.56,35.63,35.47,10.22,15.94,13.62,34.69,20.16,52.18a1.55,1.55,0,0,0,1.85,1.05l1.12-.29c1.87-.47,1.07-3.37-.8-2.89l-1.12.28a1.54,1.54,0,0,0-1,1.85C854,552,857.9,582,861.65,612c1.79,14.3,3.5,28.64,5.78,42.88.91,5.73,1.65,12.14,3.18,17.69a8,8,0,0,0,5.13,5.79c4.4,1.77,10,1.34,14.59,1.66,8.06.54,16.13,1,24.2,1.37,15.24.66,30.51.83,45.75,0,27.36-1.48,55.29,3,82.4-1.83A101.86,101.86,0,0,0,1078.44,666c13.39-8.21,28.33-7,43.53-7.38s30.62-.73,45.93-1.18c7.2-.22,14.4-.5,21.61-.7,3.55-.1,8.4,1.55,11.77,0,1.3-.6,1.52-1.64,2.61-2.27,2.07-1.21,3.91-1,6.28-.65,7.69,1,14.87,2.71,22.7,2.63a104.36,104.36,0,0,0,18.24-1.93c8.49-1.6,16.73-1.92,25.34-2.2,7.37-.24,15.18-1.19,22.49-.15a38.49,38.49,0,0,0,16-.52c6.73-1.66,13.87-1.46,20.79-1.79,8.14-.39,16.35-1.13,24.5-1.17,7.1,0,13.07,2.07,20.1.17,7.72-2.08,15.73-2,23.71-2.4a53.2,53.2,0,0,1,12.23.36c2.48.43,4.64,1,7.22.56,3.38-.56,6.28-2.17,9.76-2.6,3.85-.48,7.84-.47,11.72-.7,4.31-.25,8.73-.87,13-.77,3.57.08,6.91,1.37,10.46,1.39a19.8,19.8,0,0,0,6.28-1.1,45.16,45.16,0,0,1,12.12-2.54c7.86-.49,15.32,1.58,23.17,1s15.56-2.47,23.56-1.76a1.5,1.5,0,0,0,1.5-1.5c-.38-7,.24-14.25-.6-21.2-.92-7.62-2.41-14.74-2.29-22.48.23-15.15,1.36-30.18-2.07-45.09-.39-1.72-2.84-1.22-2.94.4-.8,12.38.29,24.78-.5,37.15-.49,7.54-.89,13.76-7.19,18.48-4.25,3.19-9.1,5.46-13.51,8.42l2.26,1.29c-.34-29.43,4.92-58.27,6-87.56.24-6.24-1.07-12.07-2-18.2-.44-2.91-1.39-5.67.31-8.25,1.21-1.85,3.31-2.72,4.13-4.94,2.21-5.94-5.34-8-9.63-9.17a1.51,1.51,0,0,0-1.85,1,16.66,16.66,0,0,1-.57,3.54c-.86,2.21.12,2.1-2.41,1.91-3.06-.23-7.65-6.46-9.8-8.49-3.17-3-5.42-5.46-1.71-9.35,2.9-3,7.17-5.38,10.53-7.9l-2-.54c3.24,4.3,3.65,9.57,8.19,12.85a1.52,1.52,0,0,0,2.21-.9c1.33-6.48-.58-13.32,3.65-18.94a1.53,1.53,0,0,0,0-1.52c-13.89-32.74-36.92-60.23-69.31-75.79a174,174,0,0,0-48.46-14.56c-21.15-3.31-42.57-2.68-63.8-5-15.12-1.68-30.14-4.12-45.19-6.31-6.64-1-13.28-1.89-19.94-2.69-3.38-.4-6.76-.76-10.15-1.1-1.22-.12-8.37,0-9.08-.86a1.52,1.52,0,0,0-2.57,1.06c0,.14,0,.27,0,.4l1.5-1.5c-3.91-.2-7.93-.69-11.84-.62-3.7.07-7.3,1-11,1-7.94,0-15.71-1.86-23.5-3.16-2.56-.43-3.14-.23-5.59.53a47,47,0,0,1-13.07,2c-7.54.14-15.12-.29-22.66-.32q-47.31-.17-94.61-.09c-64.4,0-128.77,1.27-193.16,2.71-31.42.7-63,2.33-94.4,2.15-6,0-11.36-.92-14.86-6.27-4.38-6.67-6.53-15.83-9.62-23.2-5.59-13.29-11.68-26.37-18.06-39.3-6.5-13.16-14.22-25.9-20.2-39.29-2.25-5-4.08-11,1.29-14.6,5-3.4,12.58-3.58,18.33-4.45a893.16,893.16,0,0,1,96.16-9.42c35.4-1.49,70.94-1.37,106.37-.94,34.9.42,69.24,7,104.24,6.44a1.51,1.51,0,0,0,.4-2.95c-2.85-.81-5.47-2.89-8.3-4a63,63,0,0,0-13-3.17q-16.12-2.49-32.32-4.58c-20.54-2.66-41.18-3.32-61.84-4.47-27.7-1.54-55.77.23-83.52.79-26.84.55-53.75.9-80.57,2-19.53.81-39.94,1.5-59.09,5.74-6.89,1.52-13.66,4-19.41,8.16-4.12,3-10.25,8-10.22,13.43,0,9,7.15,16.65,11.64,23.84,5.65,9,10.79,18.37,15.57,27.89a492.24,492.24,0,0,1,28.3,67.88c.48-.63,1-1.26,1.45-1.9-16.93-1.16-34.28-3.94-51.27-3.3-3.36.12-9.29-1.14-11.51,2.1-1,1.46-.77,3.3-.6,4.95.63,6.12-.42,8.16-6.3,11.16L641.43,379c-3.76,1.91-12.34,8.68-15.66,4.88-5.22-6,2.86-19.18-3.34-24.47-2.16-1.84-5.84-.85-8.31-.9-6-.1-12-.36-18-.43-12-.15-27.19,0-33-12.64-.43.75-.86,1.5-1.3,2.25,31.45.34,62.84.47,94.26,1.55,4.11.15,9.79.78,11.39-4,2.4-7.2-2.17-16.34-6-21.94-10.91-15.79-27.51-19.61-45.87-17.24-13,1.69-25,7.24-36.94,12.33-3.7,1.57-7.41,3.11-11.2,4.45-1.39.49-3.29.65-4.32,1.84-1.84,2.15-1.25,6.57-1.27,9.06,0,4.09.17,8-5,8.84-3.75.61-9.11-.85-12.92-1.26q-14-1.5-27.94-3.73a436.46,436.46,0,0,1-54.05-12.26l.66,2.51c15.4-14.44,39.26-11.26,54.85-26a1.52,1.52,0,0,0-1.06-2.56,306,306,0,0,0-55.64.72q-12.24,1.32-24.35,3.63c-8.51,1.61-16.37,4.64-24.58,7.32s-16.6,2.94-24.89,5.15-16.2,5.4-24.23,8.29c-18.36,6.62-37.06,8.46-56.39,10.17-28.14,2.49-57.05.09-83,13.23-19.66,9.94-33.93,27.12-42.21,47.35-6.46,15.81-10,33.47-12.74,50.26a276.27,276.27,0,0,0-2.68,63.14c.13,1.92,3.13,1.93,3,0-2.32-34.71,1.37-70.36,12-103.58,7.1-22.14,20.74-41.75,41.36-53.13,26-14.36,55.66-11.74,84.26-14.27,16.18-1.43,32.78-2.34,48.36-7.25,7.41-2.33,14.63-5.26,22-7.82,8.31-2.9,16.23-4.28,24.86-5.74,9.15-1.55,17.52-5.6,26.38-8.15,9-2.61,18.72-3.87,28-5a304,304,0,0,1,60.47-1.28c-.35-.86-.7-1.71-1.06-2.56-15.51,14.64-39.34,11.42-54.85,26a1.51,1.51,0,0,0,.66,2.5,462.21,462.21,0,0,0,77.63,15.53q5.16.6,10.33,1.11c2.69.26,7.75,1.73,10.34.94a9.71,9.71,0,0,0,5.26-5.4c1.14-3.54-1-8.06.25-11.56,1.58-4.41,12-6.52,16.21-8.3,19-8.14,43.88-18.7,64.16-8.23,8,4.13,16.43,13.3,18.53,22.22.52,2.16,2,8.25.47,10.4-1.67,2.33-6.52,1.4-9,1.3C624.14,345,593,345,561.81,344.66a1.52,1.52,0,0,0-1.29,2.26c6.43,14.07,23.4,14,36.84,14.13,4.73,0,9.47,0,14.19.25,1.71.11,3.84.1,5.54.39,5.22.87,4.07,2.05,4.15,6.28,0,2.6.09,5.19.17,7.79.08,2.16-.57,6,.28,7.79,1,2.15,3.21,3.54,5,5.14a1.56,1.56,0,0,0,1.82.24l19.25-9.83,9.62-4.91c2.46-1.26,7.88-2.83,9.63-4.92a12.82,12.82,0,0,0,2.49-6.87c0-1.56-1.34-3.82-.89-5.3.64-2.09,4.36-2.05,6.39-2.35,7.47-1.14,15.71.18,23.18.72,10.33.75,20.65,1.67,31,2.37a1.5,1.5,0,0,0,1.44-1.9c-11.68-35.77-27.48-71.12-48.12-102.66-2.26-3.46-4.94-6.88-6.27-10.86-2.08-6.2.54-9.89,5.07-14,6.47-5.82,14.83-8.77,23.25-10.42,19.71-3.87,40.4-4.66,60.43-5.4,24.39-.9,48.83-1.28,73.23-1.79,25-.51,50.33-2.1,75.3-1.36,10.61.31,21.16,1.37,31.76,1.9,11.28.56,22.35.78,33.59,2.08,12.33,1.43,24.6,3.29,36.88,5.08a77,77,0,0,1,13.78,2.87c3.55,1.21,6.62,3.65,10.17,4.66l.39-3c-33.55.54-66.42-6-99.82-6.39s-66.75-.55-100.07.5A916.22,916.22,0,0,0,740.52,226c-8.56,1.21-23.95.79-30.07,8.49-4.93,6.21-.12,14.9,3,20.76,15.5,29.46,30.26,59.12,42.4,90.15,3.4,8.67,7.66,14,17.41,14.7,15.95,1.09,32.52-.58,48.51-.95,69-1.6,138-3.46,207-3.76q56.46-.25,112.91,0c16.7.06,34.61,2.18,51-1,5.75-1.1,9.06-.75,14.75.26,3.69.65,7.41,1.26,11.15,1.56,9.2.71,18.43-.65,27.7-.17a1.5,1.5,0,0,0,1.5-1.5c0-.13,0-.26,0-.4l-2.56,1.06c1.55,1.87,5.32,1.18,7.52,1.39q12,1.14,23.87,2.74c13.47,1.84,26.88,4,40.35,5.86,23.29,3.18,46.72,2.9,70,5.71,37.27,4.5,73,18.85,98.06,47.68a147.11,147.11,0,0,1,18.85,27.85c1.38,2.63,2.7,5.29,3.94,8,1.72,3.69,1.93,4.78.67,8.59-1.75,5.28-.63,10.69-1.75,16.08l2.21-.89c-3.75-2.7-4.41-8.18-7.12-11.77a1.52,1.52,0,0,0-2-.54c-4.92,3.69-12.52,6.91-13.93,13.19-.34,1.47-1,2.77-.38,4.14,1.45,3.2,7,6.64,9.58,9.15,2,2,5.66,7,9.34,5.73,3.14-1.06,3.39-5.93,3.75-8.53l-1.84,1c1.81.48,6.37,1.14,7.26,3,1.69,3.47-2.32,4.92-4,6.92-1.89,2.25-2.77,3.09-2.51,6.07a48.71,48.71,0,0,0,2.56,5.63,55.71,55.71,0,0,1,1.59,9.82c.61,6.28-.4,12.67-1,18.91-2.38,24.93-5.23,49.85-4.94,74.93a1.52,1.52,0,0,0,2.26,1.3c4.56-3.06,9.61-5.4,14-8.72,5.52-4.18,6.64-7.26,7.54-14,2-14.56.21-29.31,1.15-43.93l-3,.4c3.57,15.5,2,31.12,1.93,46.85,0,6.23,1,11.9,2,18,1.2,7.57.49,15.43.9,23.1l1.5-1.5c-10.88-1-21.79,3.43-32.59,1.5a53.84,53.84,0,0,0-14.14-.78c-2.5.15-5.29,0-7.74.48-2.19.45-3.31,1.33-5.55,2.17-5,1.88-9.3-.28-14.26-.48-6-.24-12.25.73-18.25,1.08-3.94.24-8.47-.09-12.3.83-2.57.62-3.44,1.91-5.88,2.16-2.88.29-4.8-.76-7.64-1.19a22.88,22.88,0,0,0-4.68,0c-9.58.5-21-.62-30.13,2.43-6.64,2.23-11.09-.25-17.47,0s-12.71.6-19.06.91l-16.34.78c-3.13.15-6.44,0-9.53.45-2.21.32-3.8,1.16-6,1.74-5.28,1.4-9.7-.29-14.84-.79-5.83-.57-12.25.4-18.11.59-6.44.21-13,0-19.4.63s-12.65,2.56-19.11,3.16c-12.62,1.19-24.5-1.7-37-2.78a1.44,1.44,0,0,0-1.29.75c-2.17,4.86-5.41,3-8.88,2.69a84.58,84.58,0,0,0-9.28.24q-13.52.45-27,.82c-17.1.47-34.22.74-51.33,1.22-6.14.18-12.44.43-18.37,2.23-6.48,2-11.75,6.28-17.73,9.34-13.74,7-29,10.12-44.31,10.91-15.81.82-31.68-.59-47.51-.43-17.08.18-34.12,1.16-51.21.75-8.07-.19-16.14-.56-24.2-1q-6.06-.35-12.1-.76c-3.6-.25-11.43.46-14.48-1.88-2.45-1.87-2.51-6-3-8.77-.64-3.69-1.71-7.3-2.34-11-1.52-8.82-2.6-17.74-3.75-26.61C862.14,593,858.37,557,849.15,522l-1,1.85,1.12-.29c1.87-.47,1.07-3.37-.8-2.89l-1.12.28,1.84,1c-6.14-16.43-9.49-33.9-18.28-49.28A118.59,118.59,0,0,0,801.42,439c-5.71-4.46-12.31-9.45-19.42-11.31-6.71-1.76-14-2-20.92-1.74-19.6.71-39.8,7.59-51.72,24A78.64,78.64,0,0,0,705,457c-2.28,4-5.13,6.39-8.18,9.69a15.84,15.84,0,0,0-3.21,5c-4.8,11.43-8,23.77-11,35.77-2,7.85-1.94,15-2.67,23-1,11-2.83,21.93-3.56,33a248.53,248.53,0,0,0,3.81,65c.49-.63,1-1.27,1.45-1.9-5.85.65-11.18.69-13.87-5.81-.44-1-2.13-1.66-2.75-.36-3,6.33-9.65,3.3-14.82,2.38s-10.53-1.8-15.79-2.67c-11.41-1.9-22.83-3.7-34.26-5.47-23.31-3.59-46.64-7-69.95-10.48-22.88-3.43-45.74-7-68.54-10.86q-17.1-2.92-34.15-6.16c-7.47-1.43-13.47-2.53-19.47,3a1.51,1.51,0,0,0,.66,2.51l151.18,23.5,74.92,11.64,37.46,5.82c2.94.46,7,.15,9,2.84,1.36,1.89,1.62,6.22,2.21,8.52q2.39,9.12,4.76,18.24l1.84-1.85c-30.51-5-61.41-7.87-92.1-11.5-31.45-3.72-62.92-7.25-94.36-11-39.85-4.77-79.63-10-119.57-14-26.33-2.69-53-6.68-79.52-6.84l1.5,1.5c.38-3.26,1-6.35.48-9.53-.73-4.15-2.37-8.29-3.25-12.42a114.32,114.32,0,0,1-2.49-26.34l-1.89,1.44c20.17,3.42,40.34,6.88,60.53,10.24,4.82.8,9.64,1.69,14.48,2.35,4.07.55,8.41.21,12.39,1,3.18.65,5.65,2.6,8.9,2.94s6.54-.56,9.62-1.34a1.51,1.51,0,0,0,0-2.89,28,28,0,0,0-10.41-2,34.57,34.57,0,0,1-11.91-2.08c-9.21-3-18.81-4.59-28.39-6-8.79-1.26-17.59-2.37-26.3-4.17-4.27-.88-8.5-1.73-12.83-2.25-4-.48-12,.23-14.72-2.87-2.5-2.8-3-10.86-3.69-14.48-.91-4.76-1.55-9.57-2.17-14.37-1.18-9.18-2.08-18.45-4.22-27.47-1-4.24-2.53-8.37-3.05-12.71s-.17-7.45-1.43-11.7c-2.81-9.52-5.72-19-9.15-28.36a207.33,207.33,0,0,0-10-23.13c-4.19-8.18-9.18-13.55-16.3-19.42-7.92-6.52-17.58-13.11-28.28-13-9.37.11-17.21,5.74-23.33,12.39a106.42,106.42,0,0,0-11.87,16.12c-1.75,2.82-3.81,5.64-5.4,8.51-2.3,4.14-3.16,9.93-4.43,14.53a185.81,185.81,0,0,0-6.43,63.82c1.61,22.06,5.81,43.83,10.37,65.44l2.9-.8c-9.57-23.22-17.1-47.1-15.06-72.52C168.81,506.6,165.81,506.61,165.66,508.52Z" transform="translate(-164.97 -206.38)"/><path class="cls-2" d="M663.23,611c-.35-.56-.73-1.11-1.11-1.65a1.54,1.54,0,0,0-2-.54,1.51,1.51,0,0,0-.54,2c.38.55.76,1.09,1.11,1.66a1.5,1.5,0,1,0,2.59-1.52c-.35-.56-.73-1.11-1.11-1.65a1.54,1.54,0,0,0-2-.54,1.51,1.51,0,0,0-.54,2c.38.55.76,1.09,1.11,1.66a1.5,1.5,0,1,0,2.59-1.52Z" transform="translate(-164.97 -206.38)"/><path class="cls-2" d="M659.33,605.89c-4.69-4.85-10.46-8.14-16.62-10.78-1.76-.75-3.29,1.83-1.52,2.59,5.93,2.54,11.5,5.64,16,10.31,1.34,1.39,3.46-.73,2.12-2.12-4.69-4.85-10.46-8.14-16.62-10.78-1.76-.75-3.29,1.83-1.52,2.59,5.93,2.54,11.5,5.64,16,10.31C658.55,609.4,660.67,607.28,659.33,605.89Z" transform="translate(-164.97 -206.38)"/><path class="cls-2" d="M453.84,461.77c38.13-1.58,76.25.29,114.35,1.67v-3c-38.1-1.38-76.22-3.25-114.35-1.67l1.5,1.5h0a1.5,1.5,0,0,0-3,0h0a1.52,1.52,0,0,0,1.5,1.5c38.13-1.58,76.25.29,114.35,1.67,1.93.07,1.93-2.93,0-3-38.1-1.38-76.22-3.25-114.35-1.67C451.92,458.85,451.91,461.85,453.84,461.77Z" transform="translate(-164.97 -206.38)"/><path class="cls-2" d="M667.61,620.4c-.27-.37-.56-.74-.85-1.1a1.5,1.5,0,0,0-2.12,0,1.54,1.54,0,0,0,0,2.12,6,6,0,0,0,.62.8,1.53,1.53,0,0,0,2.12,0,1.51,1.51,0,0,0,0-2.12c.38.38-.12-.17-.19-.25s-.28-.37-.43-.55l-2.12,2.12c.19.24.2.25.38.5a1.55,1.55,0,0,0,2.06.53A1.5,1.5,0,0,0,667.61,620.4Z" transform="translate(-164.97 -206.38)"/><path class="cls-1" d="M785,587.6l.08,0v.05Z" transform="translate(-164.97 -206.38)"/><path class="cls-1" d="M733.35,487.11l.19.18v0Z" transform="translate(-164.97 -206.38)"/><path class="cls-1" d="M696.18,565.31c-3.66,9.12-5,18.35-1.46,27.84,1.5,7.16-1.1,14.93,3.28,21.65.78,5.42.62,11.09,4.33,15.7.82,2.83,1.65,5.66,2.47,8.5a29.19,29.19,0,0,0,6.47,17.31c1.81,4.64,1.36,12.49,7.69,12,4.84-.41,4.79-7.65,5.28-12.51,4.48-1.14,4.3-4.55,3.91-8,3.62-3.43,2.47-6.66.69-10.85-5.5-12.89-8.23-26.56-9.36-40.53q.28-7.74.58-15.49c10.65,6.19,21.42,11.73,34.07,13.13,4.79.53,5.89,4.85,3,9.22l1.89,3.17,8.83-5.84c2.87,0,6.08,3.08,8.43-.55.39-.61-1.56-2.73-2.42-4.16-4.06-9.38-14.39-12.11-21.58-13.38-12.32-2.19-23.21-5.9-33.45-12.56,6.13-20.49,7-20.37,24-7.41,10.62,8.11,22.3,15.19,36.81,14.14,3.55-.26,3.62.13,5.41,11,11,5.25,1.3,10.54,0,15.81-10-2.61-9.16,10.09-16.32,11.48l4.38,2.8,3.2.87c1.92,8.76-4.41,18.95,4.6,26.48h0q2.07,3.84,4.15,7.68l6.4,7.17,2.42-2.36c1.7,1.41,3.26,3.69,1.45,5.12-2.6,2.06-2.73-1.53-3.87-2.76l-6.4-7.17c0,14,13.75,21.6,16,34.57-6.73,2.83-14.92,1-20.78,7.41-1.91,2.08-5.9,0-6.31-4.14-3.85-7.43-11.88-9-18.18-13-6.39-4.37-10.64-1.46-14.11,4.12-1.2-.07-2.61.69-3.8.59.76,2.14-1.83,2.59-4.28,3.12-1.7,2.88,0,4.45,2.56,5.68,2.18-.68,2.88.37,2.77,2.37,2.73,3.64,6.68,5.34,10.8,6.78,20.32,14.86,52.63,7.06,71.31-17.12,23.76-30.77,29-66.11,26.47-103.45a161.85,161.85,0,0,0-19.79-68.07c-1.4-2.52-2.83-7.12-6.62-4.81s0,5.41,1.29,8c15.64,30,15.64,30-15.7,39.94-2.57.82-5.13,1.68-7.7,2.52h0c-9.06-18.34-12.48-37.82-11.6-58.13.23-5.26-1.28-9.66-5.61-12.87,10-3.19,15.57,5.06,22.76,9,4.1,2.22,7,7.45,12.85,4.36-8.74-9.5-18.24-17.7-30.08-23.62-6.59-3.3-13.32,5.21-18.7-2l-1.15.23-1.15-.25c-4.78,7.32-11.56-1.3-17.06,2.2s-12.62,4.28-15.61,11.12c5.16,5.28,9.74.95,14.78-.7,4.11-1.35,8.93-8.07,13.06.23l1,.29c.71-6.18,5.22-6.28,9.57-5.37,6.51,1.37,4.57,7.27,5.45,11.6-7.41,1.66-4.47,7.66-5,12.15-1.12,8.79,2.29,18.23-4,29.11-3.54-10.68-1.32-19.17-2.27-27.33-.79-6.77,3.29-14.55-3.76-20.16l-1-.29q-6.35,6.39-12.66,12.77c.56.68,1.13,1.35,1.7,2,10.91-5.24,7.4,4.14,6.8,7.67-2.41,14.31-3.44,28.41,1.39,42.42.22.69.46,1.38.69,2.07l-1.89-.88c-13.77.18-25.13-9.59-38.9-9.42h0c-8.36-5.12-9-11.75-4-19.66,4.11-6.46,7.32-13.65,12.27-19.35,4-4.57,4.22-9.11,3.91-14.26C712,502.85,706.48,523.33,700,543,697.71,550.11,697.41,557.86,696.18,565.31ZM750.81,695.2a6.11,6.11,0,0,1,.87,0A6.11,6.11,0,0,0,750.81,695.2Zm7.31-2h0a2.33,2.33,0,0,1-.41,1.62A2.33,2.33,0,0,0,758.12,693.2Zm36.48-57.93c10.79,9.2,10.37,24.49,20.46,33.81h0c1.37,4.34,4.68,9.09-2.39,11.71C802.85,667,794.47,652.76,794.6,635.27Zm.18-38.13c0-.24,0-.58.14-.72a3.32,3.32,0,0,1,.74-.47C795.37,596.35,795.08,596.75,794.78,597.14Zm-.84-32,2.17-1.95a1.66,1.66,0,0,0,2.13-.63l.63-5.15-.63,5.15c4.72-1.49,9.43-3,14.17-4.44,26.08-7.82,26.47-7.87,30.64,19.46,4.7,30.81-.72,59.95-16.65,86.95L824,667.37c-.43-1.17-.85-2.34-1.27-3.51h0a19.36,19.36,0,0,0-2.47,2.41,19.36,19.36,0,0,1,2.47-2.41c-4.46-13.55-11.25-26.87-12.61-40.73-1-10.38,1.55-20.46-8.84-27.32,8.3-8.3,20-10.92,28.92-18.69-10.85,6.1-27-3-34.37,13,0,1.09,0,2.18,0,3.27l3.45,2.24-3.37.08a7,7,0,0,0-.08-2.32c0-1.09,0-2.18,0-3.27.11-5.23-2.89-9.25-5.52-13.28C786.67,571.27,788.77,567.83,793.94,565.14Zm-92.36,21.78a33.65,33.65,0,0,0-.39-4.52A33.65,33.65,0,0,1,701.58,586.92ZM713,545.56c-5.79,2.62-10.27,6.42-12.23,12.55C702.71,552,707.19,548.18,713,545.56Zm-2.57,92.63a.82.82,0,0,0-.17.14l.17-.15c3.56,4,4.29,10.23,7.89,14.2C714.7,648.41,714,642.18,710.41,638.19Zm-9.33-42.64a61.65,61.65,0,0,0,.5-8.63,61.65,61.65,0,0,1-.5,8.63q3.79,17.81,7.6,35.62c.5,2.4,1,4.81,1.49,7.22h0q-.74-3.61-1.48-7.22Q704.89,613.35,701.08,595.55Z" transform="translate(-164.97 -206.38)"/><path class="cls-1" d="M730.85,490.07l-.19.14c0-.12,0-.23,0-.34Z" transform="translate(-164.97 -206.38)"/><path class="cls-1" d="M733.71,685.05c-.09.14-.13.25-.21.38l-.11,0Z" transform="translate(-164.97 -206.38)"/><path class="cls-1" d="M735.74,680.29c0-.08,0-.17.07-.26l.34-.08a7.61,7.61,0,0,1,1.63,2.36C737,682.25,736.22,681.78,735.74,680.29Z" transform="translate(-164.97 -206.38)"/><path class="cls-1" d="M733.39,685.45c-.07-.12-.1-.23-.16-.35.16,0,.31,0,.48-.05Z" transform="translate(-164.97 -206.38)"/><path class="cls-1" d="M733.23,685.1c-8.57,1-12.36-6.42-11.85-11.51.63-6.43,8.21-6.51,14-4.4,8.5,3.12,1.4,7.16.48,10.84C732.81,680.64,731.93,682.32,733.23,685.1Z" transform="translate(-164.97 -206.38)"/><path class="cls-1" d="M785,587.6l.08.09-.11,0Z" transform="translate(-164.97 -206.38)"/><path class="cls-1" d="M779.94,592c-.59-.15-1.5-1.28-1.38-1.7,1-3.46,4.16-1.85,6.38-2.54C784.21,590.23,783.51,592.84,779.94,592Z" transform="translate(-164.97 -206.38)"/><path class="cls-1" d="M198.94,538.76H199s0,.06,0,.1l-.12,0a.28.28,0,0,1,0-.09Z" transform="translate(-164.97 -206.38)"/><path class="cls-1" d="M221.5,621.75c4.44,4.93,9.36,12.47,18.68,9.32a3.53,3.53,0,0,1,3.12,1.22c1.13,1.8.09,3.33-1.55,4.43a15.76,15.76,0,0,1-10.13,3.06c-8.76.74-14.08-5-19.5-10.44-2.81-2.81-7.08-7.09-3.92-10C209.93,617.8,216.77,616.48,221.5,621.75Z" transform="translate(-164.97 -206.38)"/><path class="cls-1" d="M245.26,614.5c.32,4.37.14,9.74,5.8,10.24,5.83.5,6.08-5.62,8.06-9.33,7.06-13.27-3.14-24.94-3.9-37.55-.35-5.9-1.67-10.65,2.83-16,5.93-7-.51-6.57-5.11-6.61-11.41-5.14-15.05,5-19.74,11.1-1.83,2.4,3,2.49,5.36,2.22C228.65,585.68,239.72,599.69,245.26,614.5Zm-1.85-46c1.43-2.6,2.6-5.38,4.19-7.87-1.59,2.49-2.76,5.27-4.19,7.87-3.07,9-2.82,17.72-.6,26.36C240.59,586.23,240.34,577.49,243.41,568.51Z" transform="translate(-164.97 -206.38)"/><path class="cls-1" d="M189.77,553.29c.18,3-1.07,8.2,2.36,9.07-.71.92-1,2.76-.82,4.9,1.36,14.35,4,28.54,12.23,42q.83-8.12,1.63-16.23c3.4-3.94,1.55-5.36-2.7-5.62a6.6,6.6,0,0,0-.19,1.82,6.6,6.6,0,0,1,.19-1.82l-3.87-15.94a3.9,3.9,0,0,1-1.53-1.95,3.9,3.9,0,0,0,1.53,1.95c4.1-2.95,2.86-4.7-1.3-5.81a11.49,11.49,0,0,0-2.62-3.31c3.85-1,1.55-6.56,2.11-9.94,3.62-4.05,1.5-9,2.14-13.51l-3.71-.69a31.46,31.46,0,0,0-.83,3.69,31.46,31.46,0,0,1,.83-3.69c0-1.53,0-3.06,0-4.6,2.37.94,3.83,2.56,3.85,5.21,5.52.33,4.27,5.2,5.53,8.39-1,11.15-.54,22.08,5.07,32.2q.44-6.86.89-13.72L208.12,548l3.71-3.38c6,2.49,19.27-1.3,11.43,13.19-5.08,1.24-9,4.34-12.74,7.8q-.45,6.86-.89,13.72c8.07-5.8,18.26-9.76,18.92-22,8.53-7.64,8.53-7.64-1.25-18.29h0c18.39-2.22,24.39-22.08,41.59-27.6-1.8-1.32-2.56-2.27-3-2.14-18.18,5.43-18.25,5.45-21.68-14.21-1.88-10.8-5-21.7.88-32.31a5.88,5.88,0,0,0,2.26.52h0c.56,1.16,1.32,2.47,2.64,1.27.39-.36-.49-2.13-.79-3.25-1.07-1.16-1.8-3.2-3.93-1.49-5.79-11-10.17-12.51-23.36-7.92,3.07.14,5.78.88,7,4.18l2.5-1.19v42.49l-2.5,0V456.17c-1.17-3.3-3.88-4-7-4.18-6.19.44-9.43,5.35-12.3,9.52-14.85,21.6-21.28,45.7-19.79,71.9l5.36.15h0l-5.36-.15C189.76,540,189.36,546.69,189.77,553.29Zm33.4-43.37c.92,1.26-.63,3.25-2.83,3.53-4.06.52-20.73-12.61-19.62-16.31,4.05-13.48,7.65-27.49,21-35.71,5.57,7.74-5.36,14.22-1.93,18.9C227,490.11,216.51,500.77,223.17,509.92Zm3.66,29.19h0ZM198,512.41c9.52,6,18.29,11.63,27.24,17,4.69,2.81,2.74,5.69.74,8.81l-13.47.22C211.82,527.81,195.28,526.36,198,512.41Z" transform="translate(-164.97 -206.38)"/><path class="cls-1" d="M249.35,546.75c-3.64.53-4.58-1.78-4.62-4.83,0-2.71,0-5.72,3.56-6.08,3-.3,5.67,1.07,4.45,4.56C252,542.57,253.11,546.2,249.35,546.75Z" transform="translate(-164.97 -206.38)"/><path class="cls-1" d="M1064.43,346.33c-29-2.66-58-5.23-86.94-8.07-7.11-.7-14.12-2.33-21.18-3.53-5.11-7.17-12.66-3.56-19.22-4.34-15.57-2.17-30.58-7.54-46.42-8.18-5.45-3.12-3.93-9.21-5.91-13.81-.93-12.47-6.17-23.63-12.53-33.81-7.79-12.46-21.76-11.5-34.12-11.12-12.08.37-24.49,4.1-27.75,17.46-2.64,10.84-8.23,11.85-17.33,11.07-8.93-.77-18-.14-27-.12-6.19-2.85-15.21,3.67-19.38-5.15-6.48-13.7-16-25.91-19.87-40.88,68.8-5.32,137.6-6.4,206.45.17-9.7,4.26-19.88,3-29.93,3.22-5.93.16-12.45.16-12.13,8.88.27,7.34,3.7,11.29,11.58,12.16,15.28,1.67,30.29,3,45.81.93,12.76-1.69,16.5-6.91,13.32-18.65-1.59-5.92-.1-10.23,7-9.59,23.57,2.12,49.1-4.19,68.59,16,2.42,2.5,6.15,3.74,9.29,5.52,32.57,18.44,65.66,36.09,94.57,60.23,7.69,6.42,16.09,12.62,20.43,24.77h-43.47C1100.43,346.48,1082.42,346.47,1064.43,346.33Z" transform="translate(-164.97 -206.38)"/><path class="cls-2" d="M1064.43,344.83q-25.7-2.35-51.38-4.7c-17.35-1.6-35.52-2-52.49-6.16-3.3-.8-4.95-2.89-7.91-4.21a16,16,0,0,0-6.67-1.1c-3,0-6,.49-9,.18a116.58,116.58,0,0,1-12-2.19c-7.69-1.65-15.32-3.58-23.09-4.78-3.58-.56-8-.16-11.09-2s-3-5.14-3.68-8.47c-2.79-13.91-6.06-27-14.45-38.78-6.27-8.82-16.57-10.8-26.78-10.8-9.84,0-20.94.14-29.12,6.41-4.13,3.17-6.44,7.42-7.89,12.33-1.81,6.19-4.49,10-11.26,10.17-8.57.23-17.21-.56-25.82-.39-3.41.06-6.64-.66-10-.71-2.9-.05-5.85.82-8.74.34-4.55-.76-5.87-5.63-7.78-9.23s-4.11-7.36-6.2-11c-4.4-7.74-8.51-15.59-10.86-24.23-.48.64-1,1.27-1.45,1.9,68.71-5.27,137.79-6.31,206.45.17-.13-1-.26-2-.4-2.94-7.82,3.16-15.89,3.16-24.2,3.13-4.37,0-9.74-.56-13.9,1.2-7.37,3.13-6.17,14.81-1,19.45,3.5,3.13,8.37,3.36,12.81,3.83,8.21.85,16.44,1.54,24.7,1.57,7,0,14.18-.19,21-1.67,3.64-.79,7.49-2.17,9.87-5.2s2.55-6.57,2.13-10.1c-.28-2.31-1.1-4.52-1.34-6.83-.51-5.06,3.15-5.66,7.36-5.37,13,.87,26.13-.43,39,1.71a50.52,50.52,0,0,1,18.06,6.41c6,3.63,10.26,8.75,16.55,11.94,13.57,6.87,26.75,14.87,39.87,22.57a471.79,471.79,0,0,1,43.94,28.62c12.3,9.19,26.93,19.11,32.59,34l1.44-1.9c-16.08,0-32.86,1.34-48.81-.8s-32.31-2.18-48.49-2.31a1.5,1.5,0,0,0,0,3c17.19.13,34.48.15,51.52,2.75,7,1.07,14.51.36,21.6.36h24.18a1.51,1.51,0,0,0,1.45-1.9c-4.16-11-12-18.13-20.82-25.43a362.65,362.65,0,0,0-34-24.79c-12.66-8.21-25.71-15.79-38.82-23.22-5.78-3.28-11.57-6.52-17.36-9.79-3-1.66-5.94-3.23-8.94-4.8-3.76-2-6.39-5-9.67-7.57-9-7.09-19.87-10-31.1-10.95-5.36-.43-10.74-.45-16.11-.47-6.29,0-12.73-.83-19-.61-10.73.36-6.28,10.34-6,17,.62,13.94-21,12.35-30.15,12.33a242.81,242.81,0,0,1-24.7-1.57c-7.81-.83-14.73-3.12-13.89-12.52.71-7.88,12.23-6,17.73-6,8,0,15.72-.21,23.22-3.25a1.51,1.51,0,0,0-.4-2.95c-68.66-6.48-137.74-5.44-206.45-.17a1.52,1.52,0,0,0-1.44,1.9c3.91,14.39,12.63,26.56,19.28,39.72,2.09,4.12,4.45,6.83,9.3,7.08,2.46.13,4.88-.44,7.33-.44,3.26,0,6.26.78,9.6.72,8.24-.16,16.34,0,24.57.33,3.85.16,7.94-.14,11.08-2.64,4-3.16,4.42-8,6.13-12.41,2.46-6.37,8-10.28,14.43-12.09,5.88-1.66,12.13-1.69,18.19-1.73,6.28,0,13,.33,18.52,3.55,6.56,3.81,10.3,11.67,13.39,18.3,3.58,7.66,4.68,15.18,6.55,23.24,1,4.36,1,9.53,4.75,12.62,2,1.68,4.23,1.29,6.75,1.52a128.94,128.94,0,0,1,13.93,2.21c8,1.63,15.91,3.7,24,5a38.78,38.78,0,0,0,8.39.65c3.3-.16,6.89-.84,10,.66,1.67.81,2.57,2.67,4.08,3.44,1.66.84,4.28.85,6.12,1.2,4.29.8,8.58,1.63,12.91,2.19,9.8,1.26,19.72,2,29.56,2.89q30.14,2.81,60.28,5.52C1066.35,348,1066.34,345,1064.43,344.83Z" transform="translate(-164.97 -206.38)"/><path class="cls-1" d="M735.26,513.57l2,2c-2.24,7.14-4.84,14.07-12.07,21.1C725.73,526,729.83,519.52,735.26,513.57Z" transform="translate(-164.97 -206.38)"/><path class="cls-1" d="M737.24,515.59l-2-2c.91-2.59,2.22-4.82,5-5.7h0l3.47-4.95c.52.64,1,1.27,1.57,1.89q-1.44,2.48-2.87,4.95A8.69,8.69,0,0,1,737.24,515.59Z" transform="translate(-164.97 -206.38)"/><path class="cls-1" d="M745.36,504.83c-.53-.62-1.05-1.25-1.57-1.89,1.65-1.11,3.28-2.23,4.93-3.35.56.68,1.13,1.35,1.7,2Z" transform="translate(-164.97 -206.38)"/><path class="cls-1" d="M212.89,492.33c-1.44-2,.57-5,4.57-7.16,0,2.48.49,4.09-.11,4.9C216.32,491.49,216,496.65,212.89,492.33Z" transform="translate(-164.97 -206.38)"/><path class="cls-1" d="M210.68,501.23c-.06-.37-.12-.74-.17-1.12l1.41.31a3.26,3.26,0,0,1-.42,1C211.42,501.52,211,501.3,210.68,501.23Z" transform="translate(-164.97 -206.38)"/><path class="cls-3" d="M825.14,466.53c7.25,10,13.59,25.15,16.78,39.41,1.26,5.64,3.82,11,5.79,16.45,11.7,43.72,14.41,88.88,21.36,133.36.69,4.44,1.88,8.8,2.84,13.2-.53,6.55,3.2,8.47,9,8.89,27.78,2,55.55,3.63,83.4,1.79,12.62,0,25.26-.48,37.84.18,27.38,1.43,53.75-.51,77.57-16.43,7.52-5,16.89-5.7,26-5.9,28.82-.61,57.64-1.29,86.45-2.33,3.79-.13,9.21,3,11.36-3.39l8.8.76c15.43,4.06,30.73,2.64,46-1.1l38.81-1.26c6.6,1.87,13.14,2.33,19.51-.88l49-2.34a20,20,0,0,0,17.47-.87l31.33-1.65c5.14,2.74,10.06,2,14.86-.9l31.27-1.86c6,2,11.81,2.66,17.23-1.53l18-1.12c12.59,4.72,25.14-1.76,37.71-.16-1,6.82.56,17.66-9.24,16.45-20-2.48-36.54,8.38-55,11.3a32.62,32.62,0,0,0-18.76,9.69c-13.79,13.84-30.82,22-49.9,25.35-37.82,6.69-74.62,1.85-110.36-11.44-7.73-2.87-15.18-5-23.51-5.05-119.64-.69-239.28-1.18-358.9-2.78-20.88-.28-39.09.72-50.62,21-1.71,3-4.86,5.34-7.63,7.63-47.42,39-87,37.76-130.9-3.69-12.42-11.74-19.21-27.06-26.52-42a1.45,1.45,0,0,0-1.41-1.55,1.05,1.05,0,0,0-1.23-.9q-3.79-14.59-7.6-29.19l-.39-5.55c-6.52-31.62-5-63.27-.5-95,.75-5.26.53-10.67.76-16,3.53-16.85,9.77-32.84,15.54-49,2.73-2.9,5.87-5.52,8.13-8.75C728.9,426,749,418.65,785.35,430.69,802.11,438.71,815.36,453,825.14,466.53Zm-59.8,163.15,1.52-3.21c3.29-2,4.66-5.45,6.2-8.74l3.2.87c1.92,8.76-4.41,18.95,4.6,26.48q2.07,3.84,4.15,7.68c0,14,13.75,21.6,16,34.57-6.73,2.83-14.92,1-20.78,7.41-1.91,2.08-5.9,0-6.31-4.14-3.85-7.43-11.88-9-18.18-13-6.39-4.36-10.64-1.45-14.11,4.13-2-.12-4.66,2.21-5.84-1.42.62-3.75,8.29-7.92-.41-11.11-5.74-2.11-13.32-2-14,4.4-.52,5.18,3.41,12.79,12.33,11.47-2.1,3.13-.33,4.77,2.35,6.05l2.77,2.37c2.73,3.64,6.68,5.34,10.8,6.78,20.32,14.86,52.63,7.06,71.31-17.12,23.76-30.77,29-66.11,26.47-103.45a161.89,161.89,0,0,0-19.79-68.07c-1.4-2.52-2.83-7.12-6.62-4.8s0,5.4,1.29,8c15.64,30,15.64,30-15.7,39.94-2.57.82-5.13,1.68-7.7,2.52-9.06-18.34-12.48-37.82-11.6-58.13.23-5.26-1.28-9.66-5.63-12.87,10-3.19,15.59,5.06,22.78,9,4.1,2.22,7,7.45,12.85,4.35-8.74-9.49-18.24-17.69-30.08-23.61-6.59-3.3-13.32,5.21-18.7-2-.38-.67-.75-1.34-1.13-2l-1.17,2c-4.78,7.32-11.56-1.3-17.06,2.2s-12.64,4.28-15.62,11.15c-1.94-.1-3.15.5-2.69,2.75C712,502.71,706.5,523.26,700,543c-2.32,7.09-2.62,14.84-3.85,22.29-3.66,9.12-5,18.35-1.46,27.84,1.5,7.16-1.1,14.93,3.28,21.65.78,5.42.62,11.09,4.33,15.7.82,2.83,1.65,5.66,2.47,8.5a29.19,29.19,0,0,0,6.47,17.31c1.81,4.64,1.36,12.5,7.69,12,4.84-.41,4.79-7.65,5.28-12.51,4.48-1.14,4.3-4.55,3.91-8,3.62-3.43,2.48-6.66.68-10.85-5.49-12.89-8.22-26.56-9.35-40.53q.28-7.74.58-15.49c10.65,6.19,21.42,11.73,34.07,13.13,4.79.53,5.89,4.85,3,9.22-1.6.88-2.55,2.19-1.23,3.77.33.39,2-.37,3.12-.6l8.83-5.84c2.87,0,6.08,3.08,8.43-.55.39-.61-1.56-2.73-2.42-4.16-4.06-9.38-14.39-12.11-21.58-13.38-12.32-2.19-23.21-5.9-33.45-12.56,6.13-20.49,7-20.37,24-7.41,10.62,8.11,22.3,15.19,36.81,14.14,3.56-.26,3.62.13,5.41,11.1-2.22.77-5.46-1-6.49,2.56-.12.42.79,1.55,1.38,1.7,3.62.9,4.29-1.8,5-4.35,11.09,5.27,1.39,10.56,0,15.85-10-2.61-9.16,10.09-16.32,11.48-5.18,1.34-1.51,7.07-4.67,9.41-.49,1.08-1,2.16-1.48,3.24l-3.45,4.88L757.42,636c-2.7,2-4.22,6-1.65,7.19,2.92,1.38,2.49-3.89,4.4-5.59.42-1,.85-2,1.28-3Q763.4,632.16,765.34,629.68Z" transform="translate(-164.97 -206.38)"/><path class="cls-3" d="M304.48,619.48c-1.16,2.92-2.17,5.92-3.52,8.76-11.55,24.29-31.34,37.19-57.7,37.73-23.29.49-34-17.56-43.52-35.24-4-7.42-6.45-15.71-9.25-23.72-3-8.45-5.5-17-8.22-25.58-6-28.42-11.33-56.94-11-86.17.85-19.54,5.37-38.34,11.49-56.82a16.72,16.72,0,0,0,1.67-2.1c23.76-41.58,42.79-44.32,75.94-10.9,12,20.15,18.7,42.38,25.23,64.67-1.24,6.88,1.6,13.25,3.07,19.63,4.47,19.43,3.86,39.78,10.93,58.69-.12.92-.24,1.84-.37,2.76-.46,13.85,2,27.24,6.17,40.39C305.09,614.21,304.78,616.85,304.48,619.48ZM245.26,459.92l.06.08c-5.81-11.11-10.18-12.61-23.41-8-6.19.44-9.43,5.35-12.3,9.52-14.85,21.6-21.28,45.7-19.79,71.9-.06,6.63-.46,13.28,0,19.88.21,3.43-1.46,9.7,4.1,9.16,5-.49,2.32-6.49,2.92-10.09,3.64-4.07,1.46-9.06,2.15-13.6,5.64.28,4.35,5.19,5.62,8.4-1,11.15-.54,22.08,5.07,32.2,8.07-5.8,18.26-9.76,18.92-22,8.53-7.64,8.53-7.64-1.25-18.29,18.39-2.22,24.39-22.08,41.59-27.6-1.8-1.32-2.56-2.27-3-2.14-18.18,5.43-18.25,5.45-21.68-14.21-1.88-10.8-5-21.7.88-32.31a5.88,5.88,0,0,0,2.26.52c.56,1.16,1.32,2.47,2.64,1.27.39-.36-.49-2.13-.79-3.26C248.13,460.24,247.4,458.19,245.26,459.92Zm0,154.58c.32,4.37.14,9.74,5.8,10.24,5.83.51,6.08-5.62,8.06-9.33,7.06-13.27-3.14-24.94-3.9-37.55-.35-5.9-1.67-10.65,2.83-16,5.93-7-.51-6.57-5.11-6.61-11.41-5.14-15.05,5-19.74,11.1-1.83,2.4,3,2.49,5.36,2.22C228.65,585.68,239.72,599.69,245.26,614.5Zm-48-48.89c-4.08-7-6.47-3.46-6,1.65,1.36,14.35,4,28.54,12.23,42q.83-8.12,1.63-16.24c3.4-3.93,1.55-5.35-2.7-5.61l-3.87-15.94C202.7,568.47,201.45,566.72,197.3,565.61Zm44.45,71.11c1.64-1.1,2.68-2.63,1.55-4.43a3.53,3.53,0,0,0-3.12-1.22c-9.32,3.15-14.24-4.39-18.68-9.32-4.73-5.27-11.57-4-13.3-2.37-3.16,2.87,1.11,7.15,3.92,10,5.42,5.4,10.74,11.18,19.51,10.43A15.68,15.68,0,0,0,241.75,636.72Zm7.6-90c3.76-.55,2.63-4.18,3.39-6.35,1.22-3.49-1.44-4.86-4.45-4.56-3.58.36-3.52,3.37-3.56,6.08C244.77,545,245.71,547.28,249.35,546.75Z" transform="translate(-164.97 -206.38)"/><path class="cls-3" d="M429.68,306.49a296.39,296.39,0,0,1,86.71-5.73c-16.27,16.22-39.76,10.95-54.85,26,32.7,9.78,65.09,14.78,97.9,17.52l3.76-3.9c.4-5.21-.48-14.42,1.4-15,17.95-5.77,34.07-16.4,53.69-18.12,22.91-2,35.64,3.68,46.71,25,2.72,16.78,2.25,16-13.92,15.26-29.71-1.37-59.5-1-89.27-1.32,3,7.31,8.59,10.4,16.21,11.92,12.86,2.56,25.84.66,38.67,2.16,4.69-1.43,6.16.56,6.07,5.13-.12,6.06.26,12.12.43,18.18l4.56,4.08L666.25,368q.9-2.6,1.81-5.18c-.64-4.82-3.7-11.21,6-9.38,18-1.93,35.66,1.62,55.08,2.92-8.25-25.54-18.83-49.45-30.74-72.75A326.55,326.55,0,0,0,678.49,250c-3.24-4.8-5.11-9.3-4.76-14.89-6.18-2-6.59,7.72-13.43,5.78,16.59,13.58,27.14,30.51,36.27,48.56,3.74,7.39,4,12-6.3,10.9a19.62,19.62,0,0,0-5.41,0c-18.35,3.3-31.43-1.32-37.5-21.12-5.23-17-21.22-18.81-35.58-18.72-14.72.09-28.7,4.19-33.36,21.68-2.31,8.7-10,7.49-16.75,7.5-42.41.05-84.72,1.31-126.14,11.89Z" transform="translate(-164.97 -206.38)"/><path class="cls-3" d="M1528.68,550.49l-4-44.12c-3-4.14-6.3-6.18-6.78,1.12-.68,10.19-5.06.48-7.29,1.67l1.26,7.79c1.82,7.55.62,15.06-.08,22.63-2.34,25.37-5.48,50.69-5.06,76.24,6.57-4.62,14.54-7.32,19.47-14.18C1530.19,584.74,1527.39,567.52,1528.68,550.49Z" transform="translate(-164.97 -206.38)"/><path class="cls-1" d="M1195.24,311.87c18.57,10.89,34.71,24.9,50.57,39.28-.71-18.63-14.69-35.72-32.85-42.17C1205.83,306.45,1201.3,312.2,1195.24,311.87Z" transform="translate(-164.97 -206.38)"/><path class="cls-2" d="M1194.48,313.16c18.35,10.89,34.5,24.78,50.27,39a1.52,1.52,0,0,0,2.56-1.06,48.43,48.43,0,0,0-17.22-33.88c-4.81-4.12-10.62-7.9-16.73-9.73-6.75-2-11.61,2.74-18.12,2.83a1.5,1.5,0,0,0,0,3c5.46-.07,10.35-4.39,15.83-3.36,6,1.13,12.31,5.48,16.9,9.38,9.41,8,15.65,19.36,16.34,31.76l2.56-1.07c-16-14.43-32.31-28.49-50.87-39.51A1.5,1.5,0,0,0,1194.48,313.16Z" transform="translate(-164.97 -206.38)"/><path class="cls-3" d="M1510.62,509.16c2.23-1.19,6.61,8.52,7.29-1.67.48-7.3,3.75-5.26,6.78-1.12-.9-16.32-6.5-31.35-12.71-46.21-5.18,5.66-2,13-3.81,19.3q-.75,4.83-1.49,9.68c8,2,13.52,4.83,3.92,12.38C1507.26,504.15,1507.9,506.62,1510.62,509.16Z" transform="translate(-164.97 -206.38)"/><path class="cls-4" d="M429.68,306.49l5.85-5c-14.71,2.18-28.73,6.34-41.38,14.43C406.78,315.76,417.87,309.77,429.68,306.49Z" transform="translate(-164.97 -206.38)"/><path class="cls-5" d="M825.94,209.13c2.65,1.91,5.24,2,7.73-.28Z" transform="translate(-164.97 -206.38)"/><path class="cls-5" d="M790.56,210.52l8.19-.19C796,208.75,793.25,208.6,790.56,210.52Z" transform="translate(-164.97 -206.38)"/><path class="cls-6" d="M382.68,625.83l-3.5,0C380.37,628,381.53,627.55,382.68,625.83Z" transform="translate(-164.97 -206.38)"/><path class="cls-6" d="M692.27,665.26a1.45,1.45,0,0,0-1.41-1.55A1.47,1.47,0,0,0,692.27,665.26Z" transform="translate(-164.97 -206.38)"/><path class="cls-3" d="M1246.27,354.11l.31.37Z" transform="translate(-164.97 -206.38)"/><path class="cls-6" d="M1039.65,224.27l3,2.13Z" transform="translate(-164.97 -206.38)"/><path class="cls-3" d="M1292.15,482.53l-5,.09c0,6.84-4.59,7.85-9.93,7.79-5.79-.06-11.59-.25-17.38-.38l-34.07.08c-3.69-2.55-3.62.55-4.15,2.75-4.34,6.25-8.25,12.86-13.11,18.67-7.86,9.42-9.71,19.2-6,31.09,6.61,21.3,12.29,42.9,18.12,64.44,3.65,13.48,8.07,26.14,23.49,30.44,5.74.29,11.5,1,17.22.8,39.05-1.4,78.09-2.73,117.11-4.58,37.24-1.77,74.59-2.36,111.47-8.75l.1.48c-.68-2.61.17-3.7,2.91-2.93l-.27.32c-1.25-3.15,0-4.78,3.18-5.22,4.57-33.4,8.43-66.86,8.3-100.65v0c-12.12-4.07-14.52-18.08-24.7-24.14-8.35-6.94-17.85-8.19-28.64-8.46-32-.81-63.79,1.91-95.68,2.67-17.82.2-35.65.43-53.47.55C1297.69,487.57,1293.28,488,1292.15,482.53Z" transform="translate(-164.97 -206.38)"/><path class="cls-3" d="M926.67,453.74l.39,3.35,7.16,3c-.82-7.95,5.16-5.82,9-5.51,21.83,1.81,43.81,2.79,65.37,6.36,17.82,2.95,36.3,1.51,53.56,8l5.26-.23c4.61-.24,9.43-1.87,13.38,2.11l34.8,4.13c2.32-.85,4.53-1.34,5.85,1.55l10.48.9c10,.8,21.09-1.48,27.13,10,.43,10.7-11.74,10.09-15.37,17.14q1.14,2.34,2.27,4.68c13.57-6.82,23.8-18,35.57-27.19l-.36-3c-30.32-6.66-61.22-9.42-91.93-13.27-45-5.64-90.13-10.58-135.23-15.48C944.77,449.33,935,446.7,926.67,453.74Z" transform="translate(-164.97 -206.38)"/><path class="cls-3" d="M1292.15,482.53c1.13,5.5,5.54,5,9.49,5,17.82-.12,35.65-.35,53.47-.55-1.09-7.63,4.71-4.91,8-4.9,31.47,0,62.94.46,94.4.23,4.61,0,10.81,3.05,14-3.6-56.69.15-113.41-1-170,2.64C1298.34,481.57,1295.25,482.14,1292.15,482.53Z" transform="translate(-164.97 -206.38)"/><path class="cls-3" d="M1487.91,476.61q-.63,2.83-1.28,5.67c3.77,3.61,7.7,7.08,11.28,10.87,7.06,7.45,8,2,8.77-4q.73-4.84,1.49-9.68c-4.55-2.58-4.13-8.33-7.65-12.31Z" transform="translate(-164.97 -206.38)"/><path class="cls-3" d="M1217.52,492.65l4.12.21c.53-2.2.46-5.3,4.15-2.75,11.34-5,22.7-5.55,34.07-.08,5.79.13,11.59.32,17.38.38,5.34.06,10-1,9.93-7.79-21.06-2.42-41.9,2.8-62.91,1.82C1218,484.15,1219.57,489.77,1217.52,492.65Z" transform="translate(-164.97 -206.38)"/><path class="cls-3" d="M1197.11,351.28c-7.1-4.11-16.42-2.95-22.49-9.5-2.78,4.36-10.91,4.51-9.53,12.13C1175.83,353.78,1186.73,355.73,1197.11,351.28Z" transform="translate(-164.97 -206.38)"/><path class="cls-4" d="M1145.91,509.27q-1.12-2.34-2.27-4.68L1126,517.08l11.43-.14Z" transform="translate(-164.97 -206.38)"/><path class="cls-3" d="M681.64,628.07c-6.51.8-12.66.82-15.32-6.91-2.92,7.71-9.27,4.33-13.89,3.52-76.25-13.3-153.22-22.13-229.25-36.85-4.52-.88-9.49-1.58-14.08,3.37L682,633.62Z" transform="translate(-164.97 -206.38)"/><path class="cls-5" d="M773.06,617.73l-4.38-2.8c-5.18,1.34-1.51,7.07-4.67,9.41l2.85,2.13C770.15,624.43,771.52,621,773.06,617.73Z" transform="translate(-164.97 -206.38)"/><path class="cls-5" d="M757.42,636c-2.7,2-4.22,6-1.65,7.19,2.92,1.38,2.49-3.89,4.4-5.59Z" transform="translate(-164.97 -206.38)"/><path class="cls-5" d="M762.53,627.58l-3.45,4.88,2.37,2.16q1.95-2.46,3.89-4.94Z" transform="translate(-164.97 -206.38)"/><path class="cls-6" d="M733.53,487.32c-1.94-.1-3.15.5-2.68,2.75l-.21-.2c2,.12,2.79-.87,2.71-2.76Z" transform="translate(-164.97 -206.38)"/><path class="cls-5" d="M764,624.34c-.49,1.08-1,2.16-1.48,3.24l2.81,2.1,1.52-3.21Z" transform="translate(-164.97 -206.38)"/><path class="cls-4" d="M766.21,474l1.15.25,1.15-.23c-.38-.67-.75-1.34-1.13-2Z" transform="translate(-164.97 -206.38)"/><path class="cls-5" d="M759.08,632.46,757.42,636l2.75,1.6c.42-1,.85-2,1.28-3Z" transform="translate(-164.97 -206.38)"/><path class="cls-5" d="M757.12,603.18c-1.6.88-2.55,2.19-1.23,3.77.33.39,2-.37,3.12-.6Z" transform="translate(-164.97 -206.38)"/><path class="cls-4" d="M738.83,693.48c.11-2-.59-3.05-2.77-2.37Z" transform="translate(-164.97 -206.38)"/><path class="cls-3" d="M395.64,478.91c-.16,6.59,7.67,12.42,1.87,19.55,7.62,13.33,10,27.94,10.63,43l-.24-.11c2.79-.07,2.61,2.19,3.07,3.94,2.87,7.3,6.14,14.5,5.52,22.65l7.27.24q.45-5.08.88-10.15c14-30.12-1.2-59.32-3-88.91-1-15.7-2.48-31.31-.29-47-5.23-8.35-10.32-16.82-19.24-21.92-9.63,19.47-12.19,40-8.79,61.3C394.23,467.29,394.87,473.11,395.64,478.91Z" transform="translate(-164.97 -206.38)"/><path class="cls-3" d="M412.91,394.78c56.14-3,112.35-1.74,168.53-2.76l27.25.21c6.38.12,12.88,2.29,19-1.15,2.74,1.79,5.47,3.59,8.6,5.65-41.84,4.57-83,8.87-124.13,13.62-25.63,3-51.18,6.61-76.76,9.94-5-1.84-9.37,1.49-14.1,1.84-5.23-8.35-10.32-16.82-19.24-21.92C402.12,391.39,408.92,395,412.91,394.78ZM462,403.44c-7.32-5.48-14.57-2.3-25.09-3.28C447.21,406.26,453.8,407.43,462,403.44Z" transform="translate(-164.97 -206.38)"/><path class="cls-3" d="M313,400.83c0,1.1-.07,2.19-.1,3.29,21.43-5.53,43.87-2.78,65.33-8.28C356.29,395.19,334.51,396.28,313,400.83Z" transform="translate(-164.97 -206.38)"/><path class="cls-6" d="M312.33,406.63l-.35.84Z" transform="translate(-164.97 -206.38)"/><path class="cls-3" d="M299.59,568.43c-.12.92-.24,1.84-.37,2.76,24.57,4.15,49.12,8.39,73.7,12.4,5.26.86,10.65.92,16,1.35h0c-20.43-8.61-42.71-8.33-63.93-13.22C316.71,569.8,308.07,569.48,299.59,568.43Z" transform="translate(-164.97 -206.38)"/><path class="cls-3" d="M388.9,584.94c4.45,3.89,9.25,3.1,15.45,1.47-5.89-2.54-10.67-2-15.44-1.48Z" transform="translate(-164.97 -206.38)"/><path class="cls-3" d="M1245.81,351.15c-15.86-14.38-32-28.39-50.57-39.28l-49-31.9c-8.64-9-19.57-14.42-30.38-20.08-16.29-10.17-32.35-20.7-50.23-28.12-7.49-3.1-15.13-4.5-23-5.37l-3-2.13.41.36c-27.39.55-54.52-2.36-81.58-6.13l-16-.23-11.05-.13c-46.51,0-93.06-.79-139.45,3.43-22.42,2-44.84,4.69-67.06,8.29-16.1,2.6-18.53,8.95-10.8,23.46,16.32,30.61,31.9,61.61,44.09,94.09,4,10.53,10.82,11.44,19.91,11.23,69.09-1.59,138.18-3.29,207.27-4.37,44.27-.69,88.55-.38,132.83-.52,0-1.43,0-2.87.07-4.31-17.83-3-35.84-3-53.83-3.11-3.64,4-8.41,2.31-12.7,2.32-28.24.1-56.49-.54-84.71.23-12,.33-15.68-2.94-10.71-14.15-5.11-7.17-12.66-3.56-19.22-4.34-.09,2.71-.28,5.25-2.87,7.07-11.45,8.06-37.23-.92-43.55-15.25-5.45-3.12-3.93-9.21-5.91-13.81-.93-12.47-6.17-23.63-12.53-33.81-7.79-12.46-21.76-11.5-34.12-11.12-12.08.37-24.49,4.1-27.75,17.46-2.64,10.84-8.23,11.85-17.33,11.07-8.93-.77-18-.14-27-.12a7.9,7.9,0,0,0-.23,1.06c-.07.38-.13.77-.2,1.12.07-.35.13-.74.2-1.12a7.9,7.9,0,0,1,.23-1.06c-6.19-2.85-15.21,3.67-19.38-5.15-6.48-13.7-16-25.91-19.87-40.88h0c68.8-5.32,137.6-6.4,206.45.17-9.7,4.26-19.88,3-29.93,3.22-5.93.16-12.45.16-12.13,8.88.27,7.34,3.7,11.29,11.58,12.16,15.27,1.67,30.29,3,45.81.93,12.76-1.69,16.5-6.91,13.33-18.65-1.6-5.92-.11-10.23,7-9.59,23.57,2.12,49.1-4.19,68.59,16,2.42,2.5,6.15,3.73,9.29,5.52,32.57,18.44,65.66,36.09,94.57,60.23,7.69,6.42,16.09,12.62,20.44,24.77h-43.48c0,1.44,0,2.88-.07,4.31l46.9.16c-1.38-7.62,6.75-7.77,9.53-12.13,6.07,6.55,15.39,5.39,22.49,9.5,11.94,1.84,23.76,5.36,36,2.55l13.16.68Zm-123.09-82.46q3.38,2.47,6.87,4.73-3.49-2.25-6.87-4.73c-2.24-1.64-4.44-3.36-6.6-5.13h0C1118.28,265.33,1120.48,267.05,1122.72,268.69Zm-9.72-5.75h-.06c0,.36,0,.72,0,1.06,0-.34,0-.7,0-1.06Z" transform="translate(-164.97 -206.38)"/><path class="cls-3" d="M1064.43,346.33c-29-2.66-58-5.23-86.94-8.07-7.11-.7-14.12-2.33-21.18-3.53-5,11.21-1.34,14.48,10.71,14.15,28.22-.77,56.47-.13,84.71-.23C1056,348.64,1060.79,350.3,1064.43,346.33Z" transform="translate(-164.97 -206.38)"/><path class="cls-3" d="M937.09,330.39c-15.57-2.17-30.58-7.54-46.42-8.18,6.32,14.33,32.1,23.31,43.55,15.25C936.81,335.64,937,333.1,937.09,330.39Z" transform="translate(-164.97 -206.38)"/><path class="cls-5" d="M1492.66,622.84c2.43-.91,2.94-3,3.18-5.22C1492.65,618.06,1491.41,619.69,1492.66,622.84Z" transform="translate(-164.97 -206.38)"/><path class="cls-5" d="M1490,625.45c2,0,2.83-1.07,2.91-2.93C1490.19,621.75,1489.34,622.84,1490,625.45Z" transform="translate(-164.97 -206.38)"/><path class="cls-3" d="M950.18,538.67c4.47,23,9.09,45.89,13.32,68.89a42.86,42.86,0,0,0,8.64,19.21c19.55,5.21,39.72,5.38,59.67,7.41,30.89.89,61.79,2,92.69,2.53,6.42.12,13.43,2.26,19.28-2.66,2.15-12.5-2.14-24.07-5.2-35.82q-9.84-37.79-19.74-75.56l-.46-4.52-23.92-1.34c-10.15,1-20-1.32-30-2.38L951,506.77c31.37-5.59,62.42,2.05,93.84-1.75-5.43-5.43-12.74-4-18.88-6.83-13.47-6.09-27.21-15-40.9-16.37-12.28-1.25-18.61-3.23-21.75-14.51l-12-1.27,14.46,31.79a60.68,60.68,0,0,1-22.46-4.71l-3.87,2.26C946.94,508.84,945.54,524.5,950.18,538.67Z" transform="translate(-164.97 -206.38)"/><path class="cls-3" d="M880.07,506.82l27,.47,2.8.12,5.3,0c11-4.25,4.55-10-.56-10.93-16.17-2.95-32.68-4.12-49.08-5.84-2.82-.3-5.71.7-5.2,4.23.63,4.32,1.05,9.4,6.56,10.54C871.17,506.32,875.66,506.39,880.07,506.82Z" transform="translate(-164.97 -206.38)"/><path class="cls-3" d="M932.24,467.72c-1.19,4.87-4.32,5.74-9,5.26-23.29-2.4-46.63-4.43-69.93-6.77-5.75-.57-11.34-1.43-15.29,3.69l95.4,9,3-2.44q-2.08-4.36-4.15-8.73Z" transform="translate(-164.97 -206.38)"/><path class="cls-3" d="M934.22,460.13l-7.16-3c-.88,4.81.28,8.63,5.17,10.64h0c-2.11-5.27,5.75-3.45,5.34-7.52Z" transform="translate(-164.97 -206.38)"/><path class="cls-4" d="M1124,517.24l-5.63.91.46,4.52C1121.63,521.87,1125.07,521.69,1124,517.24Z" transform="translate(-164.97 -206.38)"/><path class="cls-3" d="M826.4,664.53c15.93-27,21.35-56.14,16.65-86.95-4.17-27.33-4.56-27.28-30.64-19.46-4.74,1.42-9.45,3-14.17,4.43a1.65,1.65,0,0,1-2.13.64l-2.17,1.95c-5.17,2.69-7.27,6.13-3.62,11.73,2.63,4,5.63,8,5.52,13.28,7.4-16,23.52-6.94,34.37-13-8.88,7.77-20.62,10.39-28.92,18.69,10.39,6.86,7.82,16.94,8.84,27.32,1.36,13.86,8.15,27.18,12.61,40.73h0Z" transform="translate(-164.97 -206.38)"/><path class="cls-3" d="M733.35,487.11c.08,1.89-.75,2.88-2.71,2.76.35,5.29.17,9.93-3.89,14.6-5,5.7-8.16,12.89-12.27,19.35-5,7.91-4.34,14.54,4,19.66,13.78-.18,25.14,9.59,38.91,9.41q.58-.61,1.2-1.2c-4.83-14-3.8-28.1-1.39-42.41.6-3.53,4.11-12.91-6.8-7.68l-5.06,3.23q-1.44,2.48-2.87,4.95a8.71,8.71,0,0,1-5.25,5.81c-2.24,7.14-4.84,14.07-12.07,21.1.56-10.65,4.66-17.17,10.09-23.11.91-2.59,2.22-4.82,5.06-5.69,1.16-1.64,2.32-3.3,3.47-4.95,1.65-1.11,3.28-2.23,4.92-3.35l12.67-12.77c-4.12-8.3-9-1.58-13.06-.23C743.21,488.26,738.59,492.7,733.35,487.11Z" transform="translate(-164.97 -206.38)"/><path class="cls-3" d="M812.67,680.79c7.07-2.62,3.76-7.37,2.39-11.71-10.09-9.32-9.67-24.61-20.46-33.81C794.47,652.76,802.85,667,812.67,680.79Z" transform="translate(-164.97 -206.38)"/><path class="cls-3" d="M777.42,493.34c-.88-4.33,1.06-10.23-5.45-11.6-4.35-.91-8.86-.81-9.57,5.37,7.05,5.61,3,13.39,3.76,20.16,1,8.16-1.27,16.65,2.27,27.33,6.24-10.88,2.83-20.32,4-29.11C773,501,770,495,777.42,493.34Z" transform="translate(-164.97 -206.38)"/><path class="cls-5" d="M791.41,659.93c1.14,1.23,1.27,4.82,3.87,2.76,1.81-1.43.25-3.71-1.45-5.12Z" transform="translate(-164.97 -206.38)"/><path class="cls-3" d="M795.9,595.83a4.81,4.81,0,0,0-1,.59c-.14.14-.1.48-.14.72.35-.46.69-.93,1-1.4Z" transform="translate(-164.97 -206.38)"/><path class="cls-3" d="M799.27,595.66l-3.45-2.24a7.22,7.22,0,0,1,.08,2.41l-.08-.09Z" transform="translate(-164.97 -206.38)"/><path class="cls-6" d="M793.94,565.14l2.17-1.95Z" transform="translate(-164.97 -206.38)"/><path class="cls-3" d="M757.41,552.89l1.89.88c-.23-.69-.47-1.38-.69-2.07C758.2,552.08,757.8,552.48,757.41,552.89Z" transform="translate(-164.97 -206.38)"/><path class="cls-4" d="M826.4,664.53l-3.64-.67c.42,1.17.84,2.34,1.27,3.51Z" transform="translate(-164.97 -206.38)"/><path class="cls-4" d="M736.15,680c-3.43.57-4.37,2.4-2.76,5.5C736.58,684.76,740.15,684.26,736.15,680Z" transform="translate(-164.97 -206.38)"/><path class="cls-6" d="M407.9,541.35c1,1.3,2.05,2.61,3.07,3.93C410.51,543.54,410.69,541.28,407.9,541.35Z" transform="translate(-164.97 -206.38)"/><path class="cls-3" d="M436.93,400.16c10.28,6.1,16.87,7.27,25.09,3.28C454.7,398,447.45,401.14,436.93,400.16Z" transform="translate(-164.97 -206.38)"/><path class="cls-3" d="M219.79,480.33c7.17,9.78-3.28,20.44,3.38,29.59.92,1.26-.63,3.25-2.83,3.53-4.06.52-20.73-12.61-19.62-16.31,4.05-13.48,7.65-27.49,21-35.71C227.29,469.17,216.36,475.65,219.79,480.33Zm-6.9,12c3.14,4.32,3.43-.84,4.46-2.26.6-.81.11-2.42.11-4.9C213.46,487.29,211.45,490.35,212.89,492.33Zm-1.39,9.1a3.26,3.26,0,0,0,.42-1l-1.41-.31c.05.38.11.75.17,1.12C211,501.3,211.42,501.52,211.5,501.43Z" transform="translate(-164.97 -206.38)"/><path class="cls-3" d="M212.51,538.43l13.47-.22c2-3.12,4-6-.74-8.81-9-5.36-17.72-11-27.24-17C195.28,526.36,211.82,527.81,212.51,538.43Z" transform="translate(-164.97 -206.38)"/><path class="cls-3" d="M208.12,548l2.4,17.61c3.72-3.46,7.66-6.56,12.74-7.8,7.84-14.49-5.42-10.7-11.43-13.19Z" transform="translate(-164.97 -206.38)"/><path class="cls-3" d="M231.36,455l-2.5,1.19v41.27l2.5,0Z" transform="translate(-164.97 -206.38)"/><path class="cls-3" d="M195.22,538.16l3.83.71c0-2.72-1.46-4.36-3.87-5.31C195.19,535.1,195.21,536.63,195.22,538.16Z" transform="translate(-164.97 -206.38)"/><path class="cls-5" d="M909.84,507.41l-2.8-.12C907.89,509.21,908.82,509.37,909.84,507.41Z" transform="translate(-164.97 -206.38)"/><path class="cls-3" d="M1092,510.88l5.16,1.09c14.8,2.26,26.66-4.5,38.15-12.44,6-4.15,12.12-8.15,18.19-12.22-6.49-4.41-14.49-.32-21.15-3.77l-72.16-8.44-44-3.24c3.15,4.16,5.69,8.8,8.6,13.09,8.15,12,16,6.94,22.89.48,4.76-4.47,8.69-4.51,10.38.35,2.2,6.3,4.36,2.91,7.4,1.79,2.63-1,7.11-.1,5.47,3-9.35,17.48,4.2,8.12,8.87,7.49C1090.34,496.63,1089.23,505.4,1092,510.88Z" transform="translate(-164.97 -206.38)"/><path class="cls-2" d="M453,485.41l48.64,3.07c1.93.12,1.92-2.88,0-3L453,482.41c-1.93-.12-1.92,2.88,0,3Z" transform="translate(-164.97 -206.38)"/><path class="cls-2" d="M218.63,383.65c28.1.09,57.62,10.61,73.52,35,8.61,13.21,13.41,28.8,17.63,43.88a324.57,324.57,0,0,1,9.77,49.9c.22,1.9,3.22,1.92,3,0a329.42,329.42,0,0,0-10.13-51.6c-4.54-16.05-9.78-32.86-19.63-46.54-16.86-23.41-46.18-33.54-74.16-33.63a1.5,1.5,0,0,0,0,3Z" transform="translate(-164.97 -206.38)"/><path class="cls-2" d="M657.75,530.49c0-44.05,22.72-86.65,59.33-111.17,1.6-1.07.1-3.67-1.51-2.59-37.49,25.11-60.79,68.61-60.82,113.76a1.5,1.5,0,0,0,3,0Z" transform="translate(-164.97 -206.38)"/><path class="cls-2" d="M1315.63,460.32h68a1.5,1.5,0,0,0,0-3h-68a1.5,1.5,0,0,0,0,3Z" transform="translate(-164.97 -206.38)"/><path class="cls-2" d="M1440.66,420.44c-8.65-10.95-21.22-17.18-34.29-21.29-16.68-5.24-34.17-8-51.31-11.27-1.89-.35-2.7,2.54-.8,2.89,16.17,3.05,32.57,5.78,48.39,10.39,13.66,4,26.88,10,35.89,21.4,1.2,1.52,3.31-.62,2.12-2.12Z" transform="translate(-164.97 -206.38)"/><path class="cls-2" d="M1036.92,283.25a265.51,265.51,0,0,0,53.17,38.13c1.7.92,3.21-1.67,1.51-2.59A262.41,262.41,0,0,1,1039,281.13c-1.42-1.31-3.55.8-2.12,2.12Z" transform="translate(-164.97 -206.38)"/></svg>